:FULLY-SPECIFIED
:FORCE-ALL-JOINTS-BE-3DOF
:DEGREES
679
root 5.34269 18.1885 2.87336 18.6083 -36.2996 1.57611
lfemur -27.4876 13.9833 -7.25126
ltibia 75.8801 -0 0
lfoot -18.1814 7.55566 -1.09501
ltoes 23.6147 -0 0
rfemur -34.1418 -23.2621 22.6317
rtibia 36.42 -0 0
rfoot 2.18354 -11.5353 0.609382
rtoes 5.16969 -0 0
lowerback 0.420467 -4.06712 -5.19361
upperback -1.97873 -5.57319 -1.96242
thorax -1.92837 -2.71307 0.936215
lowerneck -8.44791 -5.368 -0.590417
upperneck 0.184645 -7.28831 6.22357
head 1.89801 -3.52148 1.82807
lclavicle 2.13725e-14 -1.19515e-14 1.36814e-29
lhumerus 31.1676 -59.9361 35.1131
lradius 77.8897 -0 0
lwrist 29.2552 0 0
lhand -11.6941 0.122843 0.468882
lfingers 7.12502 -0 0
lthumb 14.3354 29.3342 0.396347
rclavicle 2.13725e-14 -1.19515e-14 1.36814e-29
rhumerus -53.146 -6.99464 -41.9217
rradius 67.4299 -0 0
rwrist -4.88359 0 0
rhand -32.3772 -51.3539 -0.259825
rfingers 7.12502 -0 0
rthumb -5.61231 -81.2381 -0.25303
680
root 5.3359 18.302 3.09816 18.5756 -38.0239 1.52746
lfemur -28.4182 13.598 -5.7444
ltibia 78.2541 -0 0
lfoot -16.945 7.14214 -1.07494
ltoes 24.1027 -0 0
rfemur -32.5094 -22.3975 21.7558
rtibia 34.4616 -0 0
rfoot 3.12895 -11.2254 0.684931
rtoes 4.86086 -0 0
lowerback 0.485707 -4.01644 -5.08769
upperback -1.99159 -5.51131 -2.00944
thorax -1.99505 -2.68307 0.834723
lowerneck -8.3545 -5.31779 -0.572939
upperneck 0.205062 -7.22206 6.18374
head 1.88326 -3.49049 1.81868
lclavicle 1.8345e-14 -1.08844e-14 1.386e-29
lhumerus 32.029 -58.1186 33.0611
lradius 77.9289 -0 0
lwrist 29.4204 0 0
lhand -12.2281 -0.141727 0.47761
lfingers 7.12502 -0 0
lthumb 13.8209 29.102 0.403636
rclavicle 1.8345e-14 -1.08844e-14 1.386e-29
rhumerus -52.7161 -6.79769 -40.2602
rradius 68.5802 -0 0
rwrist -4.58637 0 0
rhand -32.5522 -51.1052 -0.268166
rfingers 7.12502 -0 0
rthumb -5.78128 -80.9848 -0.261087
681
root 5.32966 18.4128 3.31281 18.5304 -39.7158 1.48187
lfemur -29.367 13.2376 -4.21613
ltibia 80.6461 -0 0
lfoot -15.6973 6.73719 -1.04736
ltoes 24.6049 -0 0
rfemur -30.8845 -21.4873 20.8968
rtibia 32.4904 -0 0
rfoot 4.10133 -10.8718 0.758286
rtoes 4.53236 -0 0
lowerback 0.554612 -3.96447 -4.97837
upperback -2.00349 -5.44766 -2.05466
thorax -2.06299 -2.65235 0.733444
lowerneck -8.25983 -5.26897 -0.55425
upperneck 0.238817 -7.15848 6.14058
head 1.87201 -3.4605 1.80743
lclavicle 1.53256e-14 -9.7724e-15 1.39563e-29
lhumerus 32.689 -56.2535 31.1804
lradius 77.9532 -0 0
lwrist 29.5814 0 0
lhand -12.7734 -0.413003 0.483561
lfingers 7.12502 -0 0
lthumb 13.2956 28.864 0.408576
rclavicle 1.53256e-14 -9.7724e-15 1.39563e-29
rhumerus -52.2066 -6.62194 -38.5965
rradius 69.7931 -0 0
rwrist -4.32915 0 0
rhand -32.7284 -50.8295 -0.275062
rfingers 7.12502 -0 0
rthumb -5.95146 -80.7045 -0.267736
682
root 5.32405 18.5203 3.51598 18.4715 -41.3708 1.44039
lfemur -30.3321 12.904 -2.66863
ltibia 83.0526 -0 0
lfoot -14.4402 6.34204 -1.01255
ltoes 25.1211 -0 0
rfemur -29.2704 -20.5323 20.0573
rtibia 30.5094 -0 0
rfoot 5.10013 -10.4733 0.828086
rtoes 4.18393 -0 0
lowerback 0.627217 -3.91127 -4.86569
upperback -2.01436 -5.38225 -2.09792
thorax -2.13214 -2.62094 0.632571
lowerneck -8.16401 -5.2217 -0.534338
upperneck 0.286422 -7.0978 6.09405
head 1.86443 -3.43162 1.79428
lclavicle 1.23205e-14 -8.61559e-15 1.39659e-29
lhumerus 33.1691 -54.347 29.4494
lradius 77.962 -0 0
lwrist 29.7377 0 0
lhand -13.3293 -0.690747 0.486542
lfingers 7.12502 -0 0
lthumb 12.7601 28.6204 0.411006
rclavicle 1.23205e-14 -8.61559e-15 1.39659e-29
rhumerus -51.6161 -6.47149 -36.9334
rradius 71.069 -0 0
rwrist -4.11413 0 0
rhand -32.9056 -50.5262 -0.280338
rfingers 7.12502 -0 0
rthumb -6.12257 -80.3966 -0.272806
683
root 5.31911 18.624 3.70632 18.3977 -42.9845 1.40415
lfemur -31.3118 12.5987 -1.10415
ltibia 85.4701 -0 0
lfoot -13.1755 5.95794 -0.970902
ltoes 25.6509 -0 0
rfemur -27.6697 -19.5335 19.2396
rtibia 28.5219 -0 0
rfoot 6.12474 -10.0287 0.892871
rtoes 3.81533 -0 0
lowerback 0.703558 -3.85689 -4.74971
upperback -2.02414 -5.31514 -2.13905
thorax -2.20241 -2.58885 0.532299
lowerneck -8.06717 -5.17612 -0.513192
upperneck 0.348387 -7.04023 6.04409
head 1.8607 -3.40394 1.77915
lclavicle 9.33533e-15 -7.41407e-15 1.38845e-29
lhumerus 33.4878 -52.4049 27.8496
lradius 77.9548 -0 0
lwrist 29.889 0 0
lhand -13.8953 -0.974715 0.486365
lfingers 7.12502 -0 0
lthumb 12.2148 28.3715 0.410768
rclavicle 9.33533e-15 -7.41407e-15 1.38845e-29
rhumerus -50.9433 -6.35048 -35.2738
rradius 72.4084 -0 0
rwrist -3.94349 0 0
rhand -33.0836 -50.1945 -0.283816
rfingers 7.12502 -0 0
rthumb -6.29436 -80.0603 -0.276126
684
root 5.3149 18.7232 3.88249 18.3074 -44.5523 1.37442
lfemur -32.3039 12.3232 0.47501
ltibia 87.8948 -0 0
lfoot -11.905 5.58609 -0.922856
ltoes 26.194 -0 0
rfemur -26.085 -18.4921 18.4455
rtibia 26.5308 -0 0
rfoot 7.17458 -9.53684 0.95109
rtoes 3.42631 -0 0
lowerback 0.783671 -3.80138 -4.63046
upperback -2.03276 -5.24636 -2.1779
thorax -2.27374 -2.5561 0.432823
lowerneck -7.96941 -5.13239 -0.4908
upperneck 0.425225 -6.98597 5.99067
head 1.86098 -3.37756 1.76199
lclavicle 6.37615e-15 -6.16795e-15 1.37082e-29
lhumerus 33.6612 -50.4322 26.3646
lradius 77.9306 -0 0
lwrist 30.0347 0 0
lhand -14.4709 -1.26466 0.482846
lfingers 7.12502 -0 0
lthumb 11.6603 28.1174 0.40771
rclavicle 6.37615e-15 -6.16795e-15 1.37082e-29
rhumerus -50.187 -6.26307 -33.6208
rradius 73.8116 -0 0
rwrist -3.81945 0 0
rhand -33.2619 -49.8339 -0.285316
rfingers 7.12502 -0 0
rthumb -6.46653 -79.6951 -0.277521
685
root 5.31148 18.8176 4.04314 18.199 -46.0697 1.35255
lfemur -33.3065 12.0789 2.06648
ltibia 90.3231 -0 0
lfoot -10.6306 5.22771 -0.868947
ltoes 26.7502 -0 0
rfemur -24.5186 -17.4095 17.6768
rtibia 24.5392 -0 0
rfoot 8.249 -8.9966 1.0011
rtoes 3.01662 -0 0
lowerback 0.86759 -3.7448 -4.50801
upperback -2.04015 -5.17594 -2.2143
thorax -2.34605 -2.52272 0.334336
lowerneck -7.87087 -5.09066 -0.467152
upperneck 0.517452 -6.93523 5.93373
head 1.86544 -3.35257 1.74276
lclavicle 3.44883e-15 -4.87733e-15 1.34335e-29
lhumerus 33.703 -48.434 24.9806
lradius 77.889 -0 0
lwrist 30.1743 0 0
lhand -15.0557 -1.56034 0.475811
lfingers 7.12502 -0 0
lthumb 11.097 27.8585 0.401685
rclavicle 3.44883e-15 -4.87733e-15 1.34335e-29
rhumerus -49.3462 -6.2134 -31.9777
rradius 75.2793 -0 0
rwrist -3.74419 0 0
rhand -33.4403 -49.4437 -0.284656
rfingers 7.12502 -0 0
rthumb -6.63883 -79.3002 -0.276818
686
root 5.30892 18.9064 4.18693 18.0709 -47.5322 1.34001
lfemur -34.3173 11.8669 3.66784
ltibia 92.7516 -0 0
lfoot -9.35397 4.88397 -0.809782
ltoes 27.3191 -0 0
rfemur -22.9727 -16.2869 16.9351
rtibia 22.5501 -0 0
rfoot 9.34735 -8.40693 1.04115
rtoes 2.58603 -0 0
lowerback 0.955351 -3.68719 -4.3824
upperback -2.04624 -5.10393 -2.24809
thorax -2.41927 -2.48872 0.237034
lowerneck -7.77165 -5.05108 -0.44224
upperneck 0.625581 -6.8882 5.87322
head 1.87427 -3.32907 1.72138
lclavicle 5.59265e-16 -3.54232e-15 1.30572e-29
lhumerus 33.6253 -46.4146 23.6854
lradius 77.8292 -0 0
lwrist 30.3073 0 0
lhand -15.6489 -1.86149 0.465091
lfingers 7.12502 -0 0
lthumb 10.5256 27.5948 0.392554
rclavicle 5.59265e-16 -3.54232e-15 1.30572e-29
rhumerus -48.4201 -6.20555 -30.348
rradius 76.8118 -0 0
rwrist -3.71992 0 0
rhand -33.6186 -49.0233 -0.281655
rfingers 7.12502 -0 0
rthumb -6.81096 -78.8751 -0.27384
